<svg version="1.2" xmlns="http://www.w3.org/2000/svg" viewBox="0 0 134 134" width="134" height="134">
	<title>636e0a6918e57475a843f59f_icon_clyde_black_RGB-svg</title>
	<style>
		.s0 { fill: #201e1f } 
	</style>
	<path id="Layer" fill-rule="evenodd" class="s0" d="m129.6 99.2q-3.6 2.7-7.5 5.1-3.9 2.3-7.9 4.4-4 2-8.3 3.7-4.2 1.7-8.5 3-1-1.4-1.9-2.7-0.9-1.4-1.8-2.7-0.8-1.4-1.6-2.9-0.8-1.4-1.6-2.8 1.4-0.6 2.8-1.2 1.4-0.5 2.8-1.2 1.3-0.6 2.7-1.4 1.3-0.7 2.6-1.4-1.4-1-2.7-2c-5 2.3-10.2 4.1-15.7 5.3-5.4 1.2-10.9 1.9-16.4 1.9-5.6 0-11.1-0.7-16.5-1.9-5.4-1.2-10.7-3-15.7-5.3q-1.3 1-2.6 2 1.2 0.7 2.6 1.4 1.3 0.8 2.7 1.4 1.3 0.6 2.7 1.2 1.4 0.6 2.8 1.2-0.7 1.4-1.5 2.8-0.8 1.5-1.7 2.9-0.9 1.3-1.8 2.7-0.9 1.3-1.9 2.7-4.3-1.4-8.5-3-4.2-1.7-8.3-3.7-4-2.1-7.9-4.4-3.8-2.4-7.5-5.1c-2.2-23.6 2.3-47.6 18.9-72.1q3.1-1.4 6.3-2.7 3.3-1.2 6.6-2.2 3.2-1 6.6-1.8 3.3-0.8 6.7-1.4 0.5 0.8 0.9 1.7 0.5 0.8 0.9 1.7 0.4 0.8 0.8 1.7 0.4 0.9 0.8 1.7 3.6-0.5 7.3-0.8 3.6-0.3 7.3-0.3 3.6 0 7.3 0.3 3.6 0.3 7.2 0.8 0.4-0.8 0.8-1.7 0.4-0.9 0.8-1.7 0.4-0.9 0.9-1.7 0.4-0.9 0.9-1.7 3.4 0.6 6.7 1.4 3.4 0.8 6.6 1.8 3.3 1 6.6 2.2 3.2 1.2 6.3 2.7c14.4 21 21.5 44.7 18.9 72.1zm-72.7-27.2c0.1-7-5-12.7-11.5-12.7-6.4 0-11.4 5.7-11.4 12.7 0 7 5.2 12.7 11.5 12.7 6.3 0 11.3-5.7 11.4-12.7zm42.2 0c0.1-7-5-12.7-11.4-12.7-6.4 0-11.4 5.7-11.4 12.7 0 7 5.1 12.7 11.4 12.7 6.4 0 11.3-5.7 11.4-12.7z"/>
</svg>