<?xml version="1.0" encoding="utf-8"?>
<!-- Generator: Adobe Illustrator 24.0.1, SVG Export Plug-In . SVG Version: 6.00 Build 0)  -->
<svg version="1.1" id="Layer_1" xmlns="http://www.w3.org/2000/svg" x="0px" y="0px"
	 viewBox="0 0 1250 1250" style="enable-background:new 0 0 1250 1250;" xml:space="preserve">
<style type="text/css">
	.st0{fill:#F5F5F5;}
	.st1{fill:#201E1F;}
	.st2{display:none;}
	.st3{display:inline;fill:#201E1F;}
</style>
<rect class="st0" width="1250" height="1250"/>
<g>
	<path class="st1" d="M925,325v600H325V325H925 M1053,197H197v856h856V197L1053,197z"/>
</g>
<g class="st2">
	<path class="st3" d="M418.9,913.7V336.3h213.6c46.2,0,84.4,7.7,114.7,23.1c30.2,15.4,52.8,36.6,67.6,63.5
		c14.8,26.9,22.3,57.2,22.3,90.7c0,31.9-7.2,61.2-21.4,87.8c-14.3,26.7-36.6,48.1-66.8,64.3c-30.2,16.2-69,24.3-116.3,24.3H524.5
		v223.5H418.9z M524.5,604.4h101.5c36.8,0,63.4-8.1,79.6-24.3c16.2-16.2,24.3-38.4,24.3-66.4c0-28.6-8.1-51-24.3-67.2
		c-16.2-16.2-42.8-24.3-79.6-24.3H524.5V604.4z"/>
</g>
</svg>
