<svg version="1.2" xmlns="http://www.w3.org/2000/svg" viewBox="0 0 516 516" width="516" height="516">
	<title>react-svg</title>
	<style>
		.s0 { fill: #61dafb } 
		.s1 { fill: none;stroke: #61dafb;stroke-width: 20.8 } 
	</style>
	<path id="Layer" class="s0" d="m258 300.7c-23.6 0-42.7-19.1-42.7-42.7 0-23.6 19.1-42.7 42.7-42.7 23.6 0 42.7 19.1 42.7 42.7 0 23.6-19.1 42.7-42.7 42.7z"/>
	<g id="Layer">
		<path id="Layer" class="s1" d="m258 345.4c-126.7 0-229.2-39-229.2-87.4 0-48.4 102.5-87.4 229.2-87.4 126.7 0 229.2 39 229.2 87.4 0 48.4-102.5 87.4-229.2 87.4z"/>
		<path id="Layer" class="s1" d="m182.2 301.7c-63.3-109.7-80.7-217.8-38.8-242 41.9-24.2 127 44.9 190.4 154.6 63.3 109.7 80.7 217.8 38.8 242-41.9 24.2-127-44.9-190.4-154.6z"/>
		<path id="Layer" class="s1" d="m182.2 214.3c63.4-109.7 148.5-178.8 190.4-154.6 41.9 24.2 24.5 132.3-38.8 242-63.4 109.7-148.5 178.8-190.4 154.6-41.9-24.2-24.5-132.3 38.8-242z"/>
	</g>
</svg>