<svg version="1.2" xmlns="http://www.w3.org/2000/svg" viewBox="0 0 542 542" width="542" height="542">
	<title>typescript-svg</title>
	<style>
		.s0 { fill: #3178c6 } 
		.s1 { fill: #ffffff } 
	</style>
	<path id="Layer" class="s0" d="m15 65c0-27.6 22.4-50 50-50h412c27.6 0 50 22.4 50 50v412c0 27.6-22.4 50-50 50h-412c-27.6 0-50-22.4-50-50z"/>
	<path id="Layer" class="s0" d="m15 65c0-27.6 22.4-50 50-50h412c27.6 0 50 22.4 50 50v412c0 27.6-22.4 50-50 50h-412c-27.6 0-50-22.4-50-50z"/>
	<path id="Layer" fill-rule="evenodd" class="s1" d="m361.5 439.6q16 5.7 32.3 5.7 9.5 0 16.6-1.8 7.1-1.7 11.9-4.7 4.8-3.1 7.1-7.2 2.4-4.2 2.4-9 0-6.6-3.8-11.8-3.7-5.1-10.2-9.5-6.5-4.4-15.4-8.4-9-4.1-19.3-8.3-26.3-11-39.2-26.8-12.9-15.8-12.9-38.2 0-17.5 7-30.1 7.1-12.6 19.2-20.7 12.1-8.1 28.1-12 16-3.8 33.8-3.8 17.5 0 31.1 2.1 13.5 2.1 24.9 6.5v46.8q-5.6-3.9-12.2-6.9-6.7-3-13.7-4.9-7.1-2-14-2.9-7-1-13.3-1-8.6 0-15.6 1.7-7.1 1.6-11.9 4.6-4.9 3-7.5 7.1-2.7 4.2-2.7 9.3 0 5.7 3 10.1 3 4.5 8.4 8.5 5.5 3.9 13.3 7.8 7.9 3.8 17.7 7.9 13.5 5.6 24.2 11.9 10.7 6.4 18.4 14.4 7.7 7.9 11.7 18.2 4.1 10.2 4.1 23.8 0 18.8-7.1 31.6-7.1 12.7-19.3 20.6-12.3 7.9-28.5 11.4-16.2 3.4-34.2 3.4-18.4 0-35.1-3.1-16.7-3.2-28.9-9.4v-50.1q13.7 11.4 29.6 17.2zm-113.7 42.4h-50.9v-182.9h-63.9v-41.1h179v41.1h-64.2z"/>
</svg>