<svg version="1.2" xmlns="http://www.w3.org/2000/svg" viewBox="0 0 292 292" width="292" height="292">
	<title>yii-svg</title>
	<defs>
		<linearGradient id="g1" x1="227.5" y1="9" x2="227.5" y2="187.5" gradientUnits="userSpaceOnUse">
			<stop offset="0" stop-color="#73b723"/>
			<stop offset="1" stop-color="#d8ee61"/>
		</linearGradient>
		<linearGradient id="g2" x1="189.4" y1="186.7" x2="122.6" y2="282.5" gradientUnits="userSpaceOnUse">
			<stop offset="0" stop-color="#98c9ea"/>
			<stop offset=".689" stop-color="#026fb2"/>
			<stop offset="1" stop-color="#086eb6"/>
		</linearGradient>
		<linearGradient id="g3" x1="18.1" y1="34.2" x2="152.1" y2="116.1" gradientUnits="userSpaceOnUse">
			<stop offset="0" stop-color="#d73721"/>
			<stop offset="1" stop-color="#f7d768"/>
		</linearGradient>
		<linearGradient id="g4" x1="174" y1="120.5" x2="197.9" y2="169.9" gradientUnits="userSpaceOnUse">
			<stop offset="0" stop-color="#d4c883"/>
			<stop offset="1" stop-color="#a1d1a7"/>
		</linearGradient>
	</defs>
	<style>
		.s0 { fill: url(#g1) } 
		.s1 { fill: url(#g2) } 
		.s2 { fill: url(#g3) } 
		.s3 { fill: url(#g4) } 
	</style>
	<path id="Layer" class="s0" d="m239.8 9c18.6 9.5 34.6 34.4 33.8 68.1-2.4 41.6-32.6 77.4-65.4 110.4-1.8-40.2-10.6-65.9-24.2-102-13-36.3 24.8-75.3 55.8-76.5z"/>
	<path id="Layer" class="s1" d="m139.2 186.1c10-12.4 17.1-23.5 22-33.5 33.9 17.7 25.9 14.4 42.2 33.3q0.1 0.9 0.2 1.7c1.3 26.2-17.8 86.6-92.8 94.9-5.2-40.6 11.7-75.2 28.4-96.4z"/>
	<path id="Layer" class="s2" d="m18.4 34.2c53.5-21.1 111.1 0.6 144.3 45.7q4.8 6.6 9.1 13.6c5.2 33.2 1.3 51.6-8.8 61.4-6.7-3.4-13.8-6.4-21.3-9.1-17.6-6.4-33.9-10.6-57.1-17.5-55.1-15.1-68.7-62.3-66.2-94.1z"/>
	<path id="Layer" class="s3" d="m169.8 90.3q0.5 0.8 1 1.6l0.5 0.7q1.2 2.1 2.5 4.2l0.1 0.2 0.2 0.4 0.3 0.3 0.5 1 0.1 0.1 0.8 1.4v0.1q0.9 1.5 1.7 3.1l0.1 0.1 0.6 1.2h0.1l0.6 1.3 0.2 0.4 0.4 0.7 0.5 0.9 0.4 0.9q0.7 1.4 1.4 2.8l0.1 0.2q0.3 0.6 0.6 1.2 0.3 0.7 0.6 1.3 0.3 0.6 0.6 1.2 0.3 0.7 0.6 1.3l0.6 1.3 0.1 0.1 0.3 0.8 0.5 1 0.2 0.6 0.4 0.9 0.3 0.7 0.6 1.4v0.1l0.7 1.5 0.1 0.2q1 2.5 1.9 5l0.1 0.1 0.5 1.4 0.1 0.1 0.3 0.8q0.1 0.4 0.2 0.7 0.1 0.4 0.3 0.7 0.1 0.4 0.2 0.7 0.1 0.4 0.3 0.7l0.1 0.4q0.5 1.5 1.1 3l0.1 0.4q0.5 1.4 0.9 2.9l0.2 0.4v0.2l0.5 1.5v0.1l0.5 1.5 0.4 1.5 0.1 0.1 0.3 1.3 0.2 0.4 0.2 0.8q0.4 1.4 0.8 2.8l0.1 0.7 0.4 1.3v0.1q0.7 2.5 1.3 5v0.2 0.2q0.8 3.3 1.5 6.6v0.2q0.2 1.3 0.5 2.6 0.2 1.3 0.4 2.5 0.2 1.3 0.4 2.6 0.2 1.3 0.4 2.5v0.1q0.2 1.5 0.4 3.1l0.1 0.4 0.2 1.5 0.1 1.4 0.1 0.5 0.1 1v0.5 0.2l0.2 1.4c-11.9-15.2-26-25.7-42.9-33.9 13.7-27 11.7-46.3 9.1-63.4z"/>
</svg>
