<svg version="1.2" xmlns="http://www.w3.org/2000/svg" viewBox="0 0 108 108" width="108" height="108">
	<title>github-svg</title>
	<style>
		.s0 { fill: #201e1f } 
	</style>
	<path id="Layer" class="s0" d="m54 4c-27.6 0-50 22.4-50 50 0 22.1 14.3 40.8 34.2 47.4 2.5 0.5 3.3-1 3.3-2.4v-9.3c-13.9 3.1-16.8-5.9-16.8-5.9-2.3-5.7-5.6-7.3-5.6-7.3-4.5-3.1 0.4-3 0.4-3 5 0.3 7.6 5.1 7.6 5.1 4.5 7.7 11.7 5.5 14.6 4.2 0.4-3.2 1.7-5.4 3.2-6.7-11.1-1.3-22.8-5.6-22.8-24.7 0-5.5 1.9-9.9 5.1-13.4-0.5-1.3-2.2-6.4 0.5-13.3 0 0 4.2-1.3 13.8 5.2 4-1.1 8.3-1.7 12.5-1.7 4.2 0 8.5 0.6 12.5 1.7 9.6-6.5 13.8-5.2 13.8-5.2 2.7 6.9 1 12 0.5 13.3 3.2 3.5 5.1 7.9 5.1 13.4 0 19.2-11.7 23.4-22.8 24.7 1.8 1.5 3.4 4.6 3.4 9.2v13.7c0 1.4 0.8 2.9 3.3 2.4 19.9-6.6 34.2-25.3 34.2-47.4 0-27.6-22.4-50-50-50z"/>
</svg>