<svg version="1.2" xmlns="http://www.w3.org/2000/svg" viewBox="0 0 150 150" width="150" height="150">
	<title>literal-club-svg</title>
	<style>
		.s0 { fill: #201e1f } 
	</style>
	<path id="Layer" class="s0" d="m27.7 88.9l44.7 6 1.8-13.5-31.3-4.1 9-67.6-13.4-1.8z"/>
	<path id="Layer" class="s0" d="m32.2 125.4l86.5-14 2.1 13.3-86.5 14z"/>
	<path id="Layer" class="s0" d="m112.7 61.7l-6.5-16-6.2-15.3-6.6-16.6-8.9 3.7 6.5 16 6.1 15.1 6.8 16.7z"/>
	<path id="Layer" class="s0" d="m78.3 56.1l11.2-13.1 10.7-12.6 11.5-13.6 7.3 6.2-11.3 13.3-10.5 12.3-11.7 13.8z"/>
	<path id="Layer" class="s0" d="m89.5 43l-16.6-2.7 1.5-9.4 16.7 2.7 16.6 2.7 16.6 2.6-1.5 9.5-16.4-2.7z"/>
</svg>