<svg version="1.2" xmlns="http://www.w3.org/2000/svg" viewBox="0 0 256 256" width="256" height="256">
	<title>astro-svg</title>
	<defs>
		<linearGradient id="g1" x1="164.1" y1="113.2" x2="121.9" y2="201.7" gradientUnits="userSpaceOnUse">
			<stop offset="0" stop-color="#ff1639" stop-opacity="1"/>
			<stop offset="1" stop-color="#ff1639" stop-opacity="0"/>
		</linearGradient>
	</defs>
	<style>
		.s0 { fill: #000000 } 
		.s1 { fill: #ff5d01 } 
		.s2 { fill: url(#g1) } 
	</style>
	<path id="Layer" fill-rule="evenodd" class="s0" d="m163 18.9c1.9 2.4 2.9 5.7 4.9 12.2l43.3 142.3c-16.3-8.4-33.7-14.4-51.8-17.5l-28.2-95.3c-0.6-1.9-2.6-3.1-4.6-2.5-1.2 0.4-2.1 1.3-2.5 2.5l-27.9 95.2c-18.1 3.2-35.7 9.1-52 17.6l43.7-142.3c2-6.5 3-9.8 4.9-12.2 1.7-2.1 3.9-3.8 6.5-4.8 2.9-1.1 6.3-1.1 13.1-1.1h31.1c6.8 0 10.2 0 13.1 1.1 2.5 1 4.7 2.7 6.4 4.8z"/>
	<path id="Layer" fill-rule="evenodd" class="s1" d="m168.2 180.1c-7.1 6.1-21.4 10.3-37.8 10.3-20.2 0-37-6.3-41.5-14.7-1.6 4.8-2 10.4-2 13.9 0 0-1.1 17.4 11 29.4 0-6.3 5.1-11.4 11.3-11.4 10.7 0 10.7 9.4 10.7 17v0.7c0 11.2 6.7 21.3 17.1 25.6-1.5-3.2-2.3-6.7-2.3-10.2 0-11 6.5-15.1 14-19.9 6-3.8 12.6-8 17.2-16.4 2.5-4.6 3.7-9.6 3.7-14.8 0.1-3.3-0.5-6.5-1.4-9.5z"/>
	<path id="Layer" fill-rule="evenodd" class="s2" d="m168.2 180.1c-7.1 6.1-21.4 10.3-37.8 10.3-20.2 0-37-6.3-41.5-14.7-1.6 4.8-2 10.4-2 13.9 0 0-1.1 17.4 11 29.4 0-6.3 5.1-11.4 11.3-11.4 10.7 0 10.7 9.4 10.7 17v0.7c0 11.2 6.7 21.3 17.1 25.6-1.5-3.2-2.3-6.7-2.3-10.2 0-11 6.5-15.1 14-19.9 6-3.8 12.6-8 17.2-16.4 2.5-4.6 3.7-9.6 3.7-14.8 0.1-3.3-0.5-6.5-1.4-9.5z"/>
</svg>