<svg version="1.2" xmlns="http://www.w3.org/2000/svg" viewBox="0 0 343 343" width="343" height="343">
	<title>django-svg</title>
	<style>
		.s0 { fill: #2ba977 } 
	</style>
	<g id="Layer">
		<path id="Layer" fill-rule="evenodd" class="s0" d="m158.8 9h53.3v244.2c-27.3 5.2-47.4 7.2-69.2 7.2-65-0.1-98.9-29.2-98.9-85 0-53.8 35.9-88.7 91.6-88.7 8.6 0 15.2 0.7 23.2 2.7zm1.9 124.4c-6.3-2-11.4-2.7-18-2.7-27 0-42.5 16.5-42.5 45.3 0 28 14.9 43.5 42.1 43.5 5.9 0 10.7-0.3 18.4-1.3z"/>
		<path id="Layer" class="s0" d="m299.2 93.3v122.2c0 42.1-3.2 62.4-12.4 79.8-8.7 16.8-20 27.4-43.6 39.1l-49.4-23.3c23.5-10.9 34.9-20.6 42.2-35.3 7.6-15.1 10-32.6 10-78.5v-104c0 0 53.2 0 53.2 0zm-58.6-84.3h53.3v54.1h-53.3z"/>
	</g>
</svg>